<mxfile host="Electron" modified="2023-11-12T17:08:54.528Z" agent="Mozilla/5.0 (Windows NT 10.0; Win64; x64) AppleWebKit/537.36 (KHTML, like Gecko) draw.io/21.7.5 Chrome/114.0.5735.289 Electron/25.8.1 Safari/537.36" etag="643jl0I7e1ufp8jv9dJL" version="21.7.5" type="device">
  <diagram name="Сторінка-1" id="x9ryAGTy5Ypn6xUOGwTb">
    <mxGraphModel dx="6007" dy="3510" grid="1" gridSize="10" guides="1" tooltips="1" connect="1" arrows="1" fold="1" page="1" pageScale="1" pageWidth="827" pageHeight="1169" math="0" shadow="0">
      <root>
        <mxCell id="0" />
        <mxCell id="1" parent="0" />
        <mxCell id="j6avo99_GeEPQDbgzxfV-6" style="edgeStyle=orthogonalEdgeStyle;rounded=0;orthogonalLoop=1;jettySize=auto;html=1;entryX=0.5;entryY=0;entryDx=0;entryDy=0;" edge="1" parent="1" source="otlySmAWUqNw8j0jRBpg-2" target="j6avo99_GeEPQDbgzxfV-5">
          <mxGeometry relative="1" as="geometry" />
        </mxCell>
        <mxCell id="otlySmAWUqNw8j0jRBpg-2" value="START" style="ellipse;whiteSpace=wrap;html=1;" parent="1" vertex="1">
          <mxGeometry x="10" y="20" width="120" height="30" as="geometry" />
        </mxCell>
        <mxCell id="j6avo99_GeEPQDbgzxfV-21" style="edgeStyle=orthogonalEdgeStyle;rounded=0;orthogonalLoop=1;jettySize=auto;html=1;entryX=0.5;entryY=0;entryDx=0;entryDy=0;" edge="1" parent="1" source="j6avo99_GeEPQDbgzxfV-2" target="j6avo99_GeEPQDbgzxfV-14">
          <mxGeometry relative="1" as="geometry" />
        </mxCell>
        <mxCell id="j6avo99_GeEPQDbgzxfV-2" value="cin&amp;gt;&amp;gt;a" style="shape=parallelogram;perimeter=parallelogramPerimeter;whiteSpace=wrap;html=1;fixedSize=1;" vertex="1" parent="1">
          <mxGeometry x="160" y="130" width="120" height="60" as="geometry" />
        </mxCell>
        <mxCell id="j6avo99_GeEPQDbgzxfV-7" style="edgeStyle=orthogonalEdgeStyle;rounded=0;orthogonalLoop=1;jettySize=auto;html=1;entryX=0.5;entryY=0;entryDx=0;entryDy=0;" edge="1" parent="1" source="j6avo99_GeEPQDbgzxfV-5" target="j6avo99_GeEPQDbgzxfV-2">
          <mxGeometry relative="1" as="geometry" />
        </mxCell>
        <mxCell id="j6avo99_GeEPQDbgzxfV-5" value="Функція для перевірки на обмеження" style="shape=document;whiteSpace=wrap;html=1;boundedLbl=1;" vertex="1" parent="1">
          <mxGeometry x="30" y="80" width="80" height="60" as="geometry" />
        </mxCell>
        <mxCell id="j6avo99_GeEPQDbgzxfV-13" value="" style="edgeStyle=orthogonalEdgeStyle;rounded=0;orthogonalLoop=1;jettySize=auto;html=1;" edge="1" parent="1" source="j6avo99_GeEPQDbgzxfV-10" target="j6avo99_GeEPQDbgzxfV-12">
          <mxGeometry relative="1" as="geometry" />
        </mxCell>
        <mxCell id="j6avo99_GeEPQDbgzxfV-10" value="return a;" style="whiteSpace=wrap;html=1;align=left;rounded=1;" vertex="1" parent="1">
          <mxGeometry y="270" width="120" height="60" as="geometry" />
        </mxCell>
        <mxCell id="j6avo99_GeEPQDbgzxfV-32" style="edgeStyle=orthogonalEdgeStyle;rounded=0;orthogonalLoop=1;jettySize=auto;html=1;entryX=0.5;entryY=0;entryDx=0;entryDy=0;" edge="1" parent="1" source="j6avo99_GeEPQDbgzxfV-12">
          <mxGeometry relative="1" as="geometry">
            <mxPoint x="59.999999999999886" y="480" as="targetPoint" />
          </mxGeometry>
        </mxCell>
        <mxCell id="j6avo99_GeEPQDbgzxfV-12" value="Функція для знаходження максимального значення" style="shape=document;whiteSpace=wrap;html=1;boundedLbl=1;align=left;rounded=1;" vertex="1" parent="1">
          <mxGeometry y="380" width="120" height="80" as="geometry" />
        </mxCell>
        <mxCell id="j6avo99_GeEPQDbgzxfV-16" value="" style="edgeStyle=orthogonalEdgeStyle;rounded=0;orthogonalLoop=1;jettySize=auto;html=1;" edge="1" parent="1" source="j6avo99_GeEPQDbgzxfV-14" target="j6avo99_GeEPQDbgzxfV-15">
          <mxGeometry relative="1" as="geometry" />
        </mxCell>
        <mxCell id="j6avo99_GeEPQDbgzxfV-24" style="edgeStyle=orthogonalEdgeStyle;rounded=0;orthogonalLoop=1;jettySize=auto;html=1;entryX=1;entryY=0.5;entryDx=0;entryDy=0;" edge="1" parent="1" source="j6avo99_GeEPQDbgzxfV-14" target="j6avo99_GeEPQDbgzxfV-10">
          <mxGeometry relative="1" as="geometry" />
        </mxCell>
        <mxCell id="j6avo99_GeEPQDbgzxfV-14" value="while review == false" style="rhombus;whiteSpace=wrap;html=1;" vertex="1" parent="1">
          <mxGeometry x="180" y="220" width="80" height="80" as="geometry" />
        </mxCell>
        <mxCell id="j6avo99_GeEPQDbgzxfV-20" style="edgeStyle=orthogonalEdgeStyle;rounded=0;orthogonalLoop=1;jettySize=auto;html=1;entryX=1;entryY=0.5;entryDx=0;entryDy=0;" edge="1" parent="1" source="j6avo99_GeEPQDbgzxfV-15" target="j6avo99_GeEPQDbgzxfV-2">
          <mxGeometry relative="1" as="geometry">
            <Array as="points">
              <mxPoint x="450" y="260" />
              <mxPoint x="450" y="160" />
            </Array>
          </mxGeometry>
        </mxCell>
        <mxCell id="j6avo99_GeEPQDbgzxfV-23" value="" style="edgeStyle=orthogonalEdgeStyle;rounded=0;orthogonalLoop=1;jettySize=auto;html=1;" edge="1" parent="1" source="j6avo99_GeEPQDbgzxfV-15" target="j6avo99_GeEPQDbgzxfV-22">
          <mxGeometry relative="1" as="geometry" />
        </mxCell>
        <mxCell id="j6avo99_GeEPQDbgzxfV-15" value="&lt;font style=&quot;font-size: 9px;&quot;&gt;&amp;nbsp;if(a &amp;lt; 0&amp;nbsp; a &amp;gt; pow(10, 12))&amp;nbsp;&lt;/font&gt;" style="rhombus;whiteSpace=wrap;html=1;" vertex="1" parent="1">
          <mxGeometry x="340" y="220" width="80" height="80" as="geometry" />
        </mxCell>
        <mxCell id="j6avo99_GeEPQDbgzxfV-88" style="edgeStyle=orthogonalEdgeStyle;rounded=0;orthogonalLoop=1;jettySize=auto;html=1;entryX=1;entryY=0.5;entryDx=0;entryDy=0;" edge="1" parent="1" source="j6avo99_GeEPQDbgzxfV-22" target="j6avo99_GeEPQDbgzxfV-10">
          <mxGeometry relative="1" as="geometry">
            <Array as="points">
              <mxPoint x="170" y="390" />
              <mxPoint x="170" y="300" />
            </Array>
          </mxGeometry>
        </mxCell>
        <mxCell id="j6avo99_GeEPQDbgzxfV-22" value="review = true" style="rounded=1;whiteSpace=wrap;html=1;" vertex="1" parent="1">
          <mxGeometry x="320" y="360" width="120" height="60" as="geometry" />
        </mxCell>
        <mxCell id="j6avo99_GeEPQDbgzxfV-25" value="Yes&lt;br&gt;" style="text;html=1;align=center;verticalAlign=middle;resizable=0;points=[];autosize=1;strokeColor=none;fillColor=none;" vertex="1" parent="1">
          <mxGeometry x="250" y="230" width="40" height="30" as="geometry" />
        </mxCell>
        <mxCell id="j6avo99_GeEPQDbgzxfV-26" value="Yes" style="text;html=1;align=center;verticalAlign=middle;resizable=0;points=[];autosize=1;strokeColor=none;fillColor=none;" vertex="1" parent="1">
          <mxGeometry x="414" y="230" width="40" height="30" as="geometry" />
        </mxCell>
        <mxCell id="j6avo99_GeEPQDbgzxfV-27" value="No" style="text;html=1;align=center;verticalAlign=middle;resizable=0;points=[];autosize=1;strokeColor=none;fillColor=none;" vertex="1" parent="1">
          <mxGeometry x="150" y="230" width="40" height="30" as="geometry" />
        </mxCell>
        <mxCell id="j6avo99_GeEPQDbgzxfV-28" value="No" style="text;html=1;align=center;verticalAlign=middle;resizable=0;points=[];autosize=1;strokeColor=none;fillColor=none;" vertex="1" parent="1">
          <mxGeometry x="340" y="300" width="40" height="30" as="geometry" />
        </mxCell>
        <mxCell id="j6avo99_GeEPQDbgzxfV-35" value="" style="edgeStyle=orthogonalEdgeStyle;rounded=0;orthogonalLoop=1;jettySize=auto;html=1;" edge="1" parent="1" source="j6avo99_GeEPQDbgzxfV-33" target="j6avo99_GeEPQDbgzxfV-34">
          <mxGeometry relative="1" as="geometry" />
        </mxCell>
        <mxCell id="j6avo99_GeEPQDbgzxfV-33" value="long long max = a;" style="rounded=1;whiteSpace=wrap;html=1;" vertex="1" parent="1">
          <mxGeometry y="480" width="120" height="60" as="geometry" />
        </mxCell>
        <mxCell id="j6avo99_GeEPQDbgzxfV-37" value="" style="edgeStyle=orthogonalEdgeStyle;rounded=0;orthogonalLoop=1;jettySize=auto;html=1;" edge="1" parent="1" source="j6avo99_GeEPQDbgzxfV-34" target="j6avo99_GeEPQDbgzxfV-36">
          <mxGeometry relative="1" as="geometry" />
        </mxCell>
        <mxCell id="j6avo99_GeEPQDbgzxfV-40" value="" style="edgeStyle=orthogonalEdgeStyle;rounded=0;orthogonalLoop=1;jettySize=auto;html=1;" edge="1" parent="1" source="j6avo99_GeEPQDbgzxfV-34" target="j6avo99_GeEPQDbgzxfV-39">
          <mxGeometry relative="1" as="geometry" />
        </mxCell>
        <mxCell id="j6avo99_GeEPQDbgzxfV-34" value="if(max &amp;lt; b)" style="rhombus;whiteSpace=wrap;html=1;" vertex="1" parent="1">
          <mxGeometry x="20" y="560" width="80" height="80" as="geometry" />
        </mxCell>
        <mxCell id="j6avo99_GeEPQDbgzxfV-48" style="edgeStyle=orthogonalEdgeStyle;rounded=0;orthogonalLoop=1;jettySize=auto;html=1;entryX=1;entryY=0.5;entryDx=0;entryDy=0;" edge="1" parent="1" source="j6avo99_GeEPQDbgzxfV-36" target="j6avo99_GeEPQDbgzxfV-47">
          <mxGeometry relative="1" as="geometry">
            <Array as="points">
              <mxPoint x="300" y="600" />
              <mxPoint x="300" y="1010" />
            </Array>
          </mxGeometry>
        </mxCell>
        <mxCell id="j6avo99_GeEPQDbgzxfV-36" value="max = b" style="rounded=1;whiteSpace=wrap;html=1;" vertex="1" parent="1">
          <mxGeometry x="160" y="570" width="120" height="60" as="geometry" />
        </mxCell>
        <mxCell id="j6avo99_GeEPQDbgzxfV-38" value="Yes" style="text;html=1;align=center;verticalAlign=middle;resizable=0;points=[];autosize=1;strokeColor=none;fillColor=none;" vertex="1" parent="1">
          <mxGeometry x="90" y="568" width="40" height="30" as="geometry" />
        </mxCell>
        <mxCell id="j6avo99_GeEPQDbgzxfV-42" value="" style="edgeStyle=orthogonalEdgeStyle;rounded=0;orthogonalLoop=1;jettySize=auto;html=1;" edge="1" parent="1" source="j6avo99_GeEPQDbgzxfV-39" target="j6avo99_GeEPQDbgzxfV-41">
          <mxGeometry relative="1" as="geometry" />
        </mxCell>
        <mxCell id="j6avo99_GeEPQDbgzxfV-44" value="" style="edgeStyle=orthogonalEdgeStyle;rounded=0;orthogonalLoop=1;jettySize=auto;html=1;" edge="1" parent="1" source="j6avo99_GeEPQDbgzxfV-39" target="j6avo99_GeEPQDbgzxfV-43">
          <mxGeometry relative="1" as="geometry" />
        </mxCell>
        <mxCell id="j6avo99_GeEPQDbgzxfV-39" value="if(max &amp;lt; c)" style="rhombus;whiteSpace=wrap;html=1;" vertex="1" parent="1">
          <mxGeometry x="20" y="720" width="80" height="80" as="geometry" />
        </mxCell>
        <mxCell id="j6avo99_GeEPQDbgzxfV-50" style="edgeStyle=orthogonalEdgeStyle;rounded=0;orthogonalLoop=1;jettySize=auto;html=1;exitX=1;exitY=0.5;exitDx=0;exitDy=0;entryX=1;entryY=0.5;entryDx=0;entryDy=0;" edge="1" parent="1" source="j6avo99_GeEPQDbgzxfV-41" target="j6avo99_GeEPQDbgzxfV-47">
          <mxGeometry relative="1" as="geometry" />
        </mxCell>
        <mxCell id="j6avo99_GeEPQDbgzxfV-41" value="max = c" style="rounded=1;whiteSpace=wrap;html=1;" vertex="1" parent="1">
          <mxGeometry x="160" y="730" width="120" height="60" as="geometry" />
        </mxCell>
        <mxCell id="j6avo99_GeEPQDbgzxfV-46" value="" style="edgeStyle=orthogonalEdgeStyle;rounded=0;orthogonalLoop=1;jettySize=auto;html=1;" edge="1" parent="1" source="j6avo99_GeEPQDbgzxfV-43" target="j6avo99_GeEPQDbgzxfV-45">
          <mxGeometry relative="1" as="geometry" />
        </mxCell>
        <mxCell id="j6avo99_GeEPQDbgzxfV-53" style="edgeStyle=orthogonalEdgeStyle;rounded=0;orthogonalLoop=1;jettySize=auto;html=1;entryX=0;entryY=0.5;entryDx=0;entryDy=0;" edge="1" parent="1" source="j6avo99_GeEPQDbgzxfV-43" target="j6avo99_GeEPQDbgzxfV-47">
          <mxGeometry relative="1" as="geometry">
            <Array as="points">
              <mxPoint x="60" y="1010" />
            </Array>
          </mxGeometry>
        </mxCell>
        <mxCell id="j6avo99_GeEPQDbgzxfV-43" value="if(max &amp;lt; d)" style="rhombus;whiteSpace=wrap;html=1;" vertex="1" parent="1">
          <mxGeometry x="20" y="880" width="80" height="80" as="geometry" />
        </mxCell>
        <mxCell id="j6avo99_GeEPQDbgzxfV-52" style="edgeStyle=orthogonalEdgeStyle;rounded=0;orthogonalLoop=1;jettySize=auto;html=1;exitX=1;exitY=0.5;exitDx=0;exitDy=0;entryX=1;entryY=0.5;entryDx=0;entryDy=0;" edge="1" parent="1" source="j6avo99_GeEPQDbgzxfV-45" target="j6avo99_GeEPQDbgzxfV-47">
          <mxGeometry relative="1" as="geometry" />
        </mxCell>
        <mxCell id="j6avo99_GeEPQDbgzxfV-45" value="max = d" style="rounded=1;whiteSpace=wrap;html=1;" vertex="1" parent="1">
          <mxGeometry x="160" y="890" width="120" height="60" as="geometry" />
        </mxCell>
        <mxCell id="j6avo99_GeEPQDbgzxfV-87" style="edgeStyle=orthogonalEdgeStyle;rounded=0;orthogonalLoop=1;jettySize=auto;html=1;exitX=0.5;exitY=1;exitDx=0;exitDy=0;entryX=0.5;entryY=0;entryDx=0;entryDy=0;" edge="1" parent="1" source="j6avo99_GeEPQDbgzxfV-47" target="j6avo99_GeEPQDbgzxfV-62">
          <mxGeometry relative="1" as="geometry" />
        </mxCell>
        <mxCell id="j6avo99_GeEPQDbgzxfV-47" value="return max" style="rounded=1;whiteSpace=wrap;html=1;" vertex="1" parent="1">
          <mxGeometry x="160" y="980" width="120" height="60" as="geometry" />
        </mxCell>
        <mxCell id="j6avo99_GeEPQDbgzxfV-54" value="Yes" style="text;html=1;align=center;verticalAlign=middle;resizable=0;points=[];autosize=1;strokeColor=none;fillColor=none;" vertex="1" parent="1">
          <mxGeometry x="100" y="728" width="40" height="30" as="geometry" />
        </mxCell>
        <mxCell id="j6avo99_GeEPQDbgzxfV-55" value="No" style="text;html=1;align=center;verticalAlign=middle;resizable=0;points=[];autosize=1;strokeColor=none;fillColor=none;" vertex="1" parent="1">
          <mxGeometry x="20" y="658" width="40" height="30" as="geometry" />
        </mxCell>
        <mxCell id="j6avo99_GeEPQDbgzxfV-56" value="No" style="text;html=1;align=center;verticalAlign=middle;resizable=0;points=[];autosize=1;strokeColor=none;fillColor=none;" vertex="1" parent="1">
          <mxGeometry x="20" y="828" width="40" height="30" as="geometry" />
        </mxCell>
        <mxCell id="j6avo99_GeEPQDbgzxfV-57" value="Yes" style="text;html=1;align=center;verticalAlign=middle;resizable=0;points=[];autosize=1;strokeColor=none;fillColor=none;" vertex="1" parent="1">
          <mxGeometry x="100" y="888" width="40" height="30" as="geometry" />
        </mxCell>
        <mxCell id="j6avo99_GeEPQDbgzxfV-58" value="No" style="text;html=1;align=center;verticalAlign=middle;resizable=0;points=[];autosize=1;strokeColor=none;fillColor=none;" vertex="1" parent="1">
          <mxGeometry x="20" y="968" width="40" height="30" as="geometry" />
        </mxCell>
        <mxCell id="j6avo99_GeEPQDbgzxfV-61" style="edgeStyle=orthogonalEdgeStyle;rounded=0;orthogonalLoop=1;jettySize=auto;html=1;entryX=0.5;entryY=0;entryDx=0;entryDy=0;" edge="1" parent="1" source="j6avo99_GeEPQDbgzxfV-62">
          <mxGeometry relative="1" as="geometry">
            <mxPoint x="529.9999999999999" y="560" as="targetPoint" />
          </mxGeometry>
        </mxCell>
        <mxCell id="j6avo99_GeEPQDbgzxfV-62" value="Функція для знаходження мінімального значення" style="shape=document;whiteSpace=wrap;html=1;boundedLbl=1;align=left;rounded=1;" vertex="1" parent="1">
          <mxGeometry x="470" y="460" width="120" height="80" as="geometry" />
        </mxCell>
        <mxCell id="j6avo99_GeEPQDbgzxfV-63" value="" style="edgeStyle=orthogonalEdgeStyle;rounded=0;orthogonalLoop=1;jettySize=auto;html=1;" edge="1" parent="1" source="j6avo99_GeEPQDbgzxfV-64" target="j6avo99_GeEPQDbgzxfV-67">
          <mxGeometry relative="1" as="geometry" />
        </mxCell>
        <mxCell id="j6avo99_GeEPQDbgzxfV-64" value="long long min = a;" style="rounded=1;whiteSpace=wrap;html=1;" vertex="1" parent="1">
          <mxGeometry x="470" y="560" width="120" height="60" as="geometry" />
        </mxCell>
        <mxCell id="j6avo99_GeEPQDbgzxfV-65" value="" style="edgeStyle=orthogonalEdgeStyle;rounded=0;orthogonalLoop=1;jettySize=auto;html=1;" edge="1" parent="1" source="j6avo99_GeEPQDbgzxfV-67" target="j6avo99_GeEPQDbgzxfV-69">
          <mxGeometry relative="1" as="geometry" />
        </mxCell>
        <mxCell id="j6avo99_GeEPQDbgzxfV-66" value="" style="edgeStyle=orthogonalEdgeStyle;rounded=0;orthogonalLoop=1;jettySize=auto;html=1;" edge="1" parent="1" source="j6avo99_GeEPQDbgzxfV-67" target="j6avo99_GeEPQDbgzxfV-73">
          <mxGeometry relative="1" as="geometry" />
        </mxCell>
        <mxCell id="j6avo99_GeEPQDbgzxfV-67" value="if(min &amp;lt; b)" style="rhombus;whiteSpace=wrap;html=1;" vertex="1" parent="1">
          <mxGeometry x="490" y="640" width="80" height="80" as="geometry" />
        </mxCell>
        <mxCell id="j6avo99_GeEPQDbgzxfV-68" style="edgeStyle=orthogonalEdgeStyle;rounded=0;orthogonalLoop=1;jettySize=auto;html=1;entryX=1;entryY=0.5;entryDx=0;entryDy=0;" edge="1" parent="1" source="j6avo99_GeEPQDbgzxfV-69" target="j6avo99_GeEPQDbgzxfV-81">
          <mxGeometry relative="1" as="geometry">
            <Array as="points">
              <mxPoint x="770" y="680" />
              <mxPoint x="770" y="1090" />
            </Array>
          </mxGeometry>
        </mxCell>
        <mxCell id="j6avo99_GeEPQDbgzxfV-69" value="min = b" style="rounded=1;whiteSpace=wrap;html=1;" vertex="1" parent="1">
          <mxGeometry x="630" y="650" width="120" height="60" as="geometry" />
        </mxCell>
        <mxCell id="j6avo99_GeEPQDbgzxfV-70" value="Yes" style="text;html=1;align=center;verticalAlign=middle;resizable=0;points=[];autosize=1;strokeColor=none;fillColor=none;" vertex="1" parent="1">
          <mxGeometry x="560" y="648" width="40" height="30" as="geometry" />
        </mxCell>
        <mxCell id="j6avo99_GeEPQDbgzxfV-71" value="" style="edgeStyle=orthogonalEdgeStyle;rounded=0;orthogonalLoop=1;jettySize=auto;html=1;" edge="1" parent="1" source="j6avo99_GeEPQDbgzxfV-73" target="j6avo99_GeEPQDbgzxfV-75">
          <mxGeometry relative="1" as="geometry" />
        </mxCell>
        <mxCell id="j6avo99_GeEPQDbgzxfV-72" value="" style="edgeStyle=orthogonalEdgeStyle;rounded=0;orthogonalLoop=1;jettySize=auto;html=1;" edge="1" parent="1" source="j6avo99_GeEPQDbgzxfV-73" target="j6avo99_GeEPQDbgzxfV-78">
          <mxGeometry relative="1" as="geometry" />
        </mxCell>
        <mxCell id="j6avo99_GeEPQDbgzxfV-73" value="if(min &amp;lt; c)" style="rhombus;whiteSpace=wrap;html=1;" vertex="1" parent="1">
          <mxGeometry x="490" y="800" width="80" height="80" as="geometry" />
        </mxCell>
        <mxCell id="j6avo99_GeEPQDbgzxfV-74" style="edgeStyle=orthogonalEdgeStyle;rounded=0;orthogonalLoop=1;jettySize=auto;html=1;exitX=1;exitY=0.5;exitDx=0;exitDy=0;entryX=1;entryY=0.5;entryDx=0;entryDy=0;" edge="1" parent="1" source="j6avo99_GeEPQDbgzxfV-75" target="j6avo99_GeEPQDbgzxfV-81">
          <mxGeometry relative="1" as="geometry" />
        </mxCell>
        <mxCell id="j6avo99_GeEPQDbgzxfV-75" value="min = c" style="rounded=1;whiteSpace=wrap;html=1;" vertex="1" parent="1">
          <mxGeometry x="630" y="810" width="120" height="60" as="geometry" />
        </mxCell>
        <mxCell id="j6avo99_GeEPQDbgzxfV-76" value="" style="edgeStyle=orthogonalEdgeStyle;rounded=0;orthogonalLoop=1;jettySize=auto;html=1;" edge="1" parent="1" source="j6avo99_GeEPQDbgzxfV-78" target="j6avo99_GeEPQDbgzxfV-80">
          <mxGeometry relative="1" as="geometry" />
        </mxCell>
        <mxCell id="j6avo99_GeEPQDbgzxfV-77" style="edgeStyle=orthogonalEdgeStyle;rounded=0;orthogonalLoop=1;jettySize=auto;html=1;entryX=0;entryY=0.5;entryDx=0;entryDy=0;" edge="1" parent="1" source="j6avo99_GeEPQDbgzxfV-78" target="j6avo99_GeEPQDbgzxfV-81">
          <mxGeometry relative="1" as="geometry">
            <Array as="points">
              <mxPoint x="530" y="1090" />
            </Array>
          </mxGeometry>
        </mxCell>
        <mxCell id="j6avo99_GeEPQDbgzxfV-78" value="if(min &amp;lt; d)" style="rhombus;whiteSpace=wrap;html=1;" vertex="1" parent="1">
          <mxGeometry x="490" y="960" width="80" height="80" as="geometry" />
        </mxCell>
        <mxCell id="j6avo99_GeEPQDbgzxfV-79" style="edgeStyle=orthogonalEdgeStyle;rounded=0;orthogonalLoop=1;jettySize=auto;html=1;exitX=1;exitY=0.5;exitDx=0;exitDy=0;entryX=1;entryY=0.5;entryDx=0;entryDy=0;" edge="1" parent="1" source="j6avo99_GeEPQDbgzxfV-80" target="j6avo99_GeEPQDbgzxfV-81">
          <mxGeometry relative="1" as="geometry" />
        </mxCell>
        <mxCell id="j6avo99_GeEPQDbgzxfV-80" value="min = d" style="rounded=1;whiteSpace=wrap;html=1;" vertex="1" parent="1">
          <mxGeometry x="630" y="970" width="120" height="60" as="geometry" />
        </mxCell>
        <mxCell id="j6avo99_GeEPQDbgzxfV-90" value="" style="edgeStyle=orthogonalEdgeStyle;rounded=0;orthogonalLoop=1;jettySize=auto;html=1;" edge="1" parent="1" source="j6avo99_GeEPQDbgzxfV-81" target="j6avo99_GeEPQDbgzxfV-89">
          <mxGeometry relative="1" as="geometry" />
        </mxCell>
        <mxCell id="j6avo99_GeEPQDbgzxfV-81" value="return min" style="rounded=1;whiteSpace=wrap;html=1;" vertex="1" parent="1">
          <mxGeometry x="630" y="1060" width="120" height="60" as="geometry" />
        </mxCell>
        <mxCell id="j6avo99_GeEPQDbgzxfV-82" value="Yes" style="text;html=1;align=center;verticalAlign=middle;resizable=0;points=[];autosize=1;strokeColor=none;fillColor=none;" vertex="1" parent="1">
          <mxGeometry x="570" y="808" width="40" height="30" as="geometry" />
        </mxCell>
        <mxCell id="j6avo99_GeEPQDbgzxfV-83" value="No" style="text;html=1;align=center;verticalAlign=middle;resizable=0;points=[];autosize=1;strokeColor=none;fillColor=none;" vertex="1" parent="1">
          <mxGeometry x="490" y="738" width="40" height="30" as="geometry" />
        </mxCell>
        <mxCell id="j6avo99_GeEPQDbgzxfV-84" value="No" style="text;html=1;align=center;verticalAlign=middle;resizable=0;points=[];autosize=1;strokeColor=none;fillColor=none;" vertex="1" parent="1">
          <mxGeometry x="490" y="908" width="40" height="30" as="geometry" />
        </mxCell>
        <mxCell id="j6avo99_GeEPQDbgzxfV-85" value="Yes" style="text;html=1;align=center;verticalAlign=middle;resizable=0;points=[];autosize=1;strokeColor=none;fillColor=none;" vertex="1" parent="1">
          <mxGeometry x="570" y="968" width="40" height="30" as="geometry" />
        </mxCell>
        <mxCell id="j6avo99_GeEPQDbgzxfV-86" value="No" style="text;html=1;align=center;verticalAlign=middle;resizable=0;points=[];autosize=1;strokeColor=none;fillColor=none;" vertex="1" parent="1">
          <mxGeometry x="490" y="1048" width="40" height="30" as="geometry" />
        </mxCell>
        <mxCell id="j6avo99_GeEPQDbgzxfV-92" value="" style="edgeStyle=orthogonalEdgeStyle;rounded=0;orthogonalLoop=1;jettySize=auto;html=1;" edge="1" parent="1" source="j6avo99_GeEPQDbgzxfV-89" target="j6avo99_GeEPQDbgzxfV-91">
          <mxGeometry relative="1" as="geometry" />
        </mxCell>
        <mxCell id="j6avo99_GeEPQDbgzxfV-89" value="&amp;nbsp; &amp;nbsp; h1 = limit();&lt;br&gt;&amp;nbsp; &amp;nbsp; h2 = limit();&lt;br&gt;&amp;nbsp; &amp;nbsp; h3 = limit();&lt;br&gt;&amp;nbsp; &amp;nbsp; h4 = limit();" style="whiteSpace=wrap;html=1;rounded=1;align=left;" vertex="1" parent="1">
          <mxGeometry x="630" y="1200" width="120" height="60" as="geometry" />
        </mxCell>
        <mxCell id="j6avo99_GeEPQDbgzxfV-94" value="" style="edgeStyle=orthogonalEdgeStyle;rounded=0;orthogonalLoop=1;jettySize=auto;html=1;" edge="1" parent="1" source="j6avo99_GeEPQDbgzxfV-91" target="j6avo99_GeEPQDbgzxfV-93">
          <mxGeometry relative="1" as="geometry" />
        </mxCell>
        <mxCell id="j6avo99_GeEPQDbgzxfV-91" value="&amp;nbsp; &amp;nbsp; d1 = limit();&lt;br&gt;&amp;nbsp; &amp;nbsp; d2 = limit();&lt;br&gt;&amp;nbsp; &amp;nbsp; d3 = limit();&lt;br&gt;&amp;nbsp; &amp;nbsp; d4 = limit();" style="whiteSpace=wrap;html=1;align=left;rounded=1;" vertex="1" parent="1">
          <mxGeometry x="630" y="1340" width="120" height="60" as="geometry" />
        </mxCell>
        <mxCell id="j6avo99_GeEPQDbgzxfV-96" value="" style="edgeStyle=orthogonalEdgeStyle;rounded=0;orthogonalLoop=1;jettySize=auto;html=1;" edge="1" parent="1" source="j6avo99_GeEPQDbgzxfV-93" target="j6avo99_GeEPQDbgzxfV-95">
          <mxGeometry relative="1" as="geometry" />
        </mxCell>
        <mxCell id="j6avo99_GeEPQDbgzxfV-93" value="h1 = h1 - d1;" style="whiteSpace=wrap;html=1;align=left;rounded=1;" vertex="1" parent="1">
          <mxGeometry x="630" y="1480" width="120" height="60" as="geometry" />
        </mxCell>
        <mxCell id="j6avo99_GeEPQDbgzxfV-97" style="edgeStyle=orthogonalEdgeStyle;rounded=0;orthogonalLoop=1;jettySize=auto;html=1;entryX=1;entryY=0.5;entryDx=0;entryDy=0;" edge="1" parent="1" source="j6avo99_GeEPQDbgzxfV-95" target="j6avo99_GeEPQDbgzxfV-12">
          <mxGeometry relative="1" as="geometry">
            <Array as="points">
              <mxPoint x="810" y="1650" />
              <mxPoint x="810" y="430" />
              <mxPoint x="140" y="430" />
              <mxPoint x="140" y="420" />
            </Array>
          </mxGeometry>
        </mxCell>
        <mxCell id="j6avo99_GeEPQDbgzxfV-99" value="" style="edgeStyle=orthogonalEdgeStyle;rounded=0;orthogonalLoop=1;jettySize=auto;html=1;" edge="1" parent="1" source="j6avo99_GeEPQDbgzxfV-95" target="j6avo99_GeEPQDbgzxfV-98">
          <mxGeometry relative="1" as="geometry" />
        </mxCell>
        <mxCell id="j6avo99_GeEPQDbgzxfV-95" value="max = 0;&lt;br&gt;max = MAX(h1, h2, h3, h4);" style="whiteSpace=wrap;html=1;align=left;rounded=1;" vertex="1" parent="1">
          <mxGeometry x="630" y="1620" width="120" height="60" as="geometry" />
        </mxCell>
        <mxCell id="j6avo99_GeEPQDbgzxfV-101" style="edgeStyle=orthogonalEdgeStyle;rounded=0;orthogonalLoop=1;jettySize=auto;html=1;exitX=1;exitY=0.5;exitDx=0;exitDy=0;entryX=1;entryY=0.5;entryDx=0;entryDy=0;" edge="1" parent="1" source="j6avo99_GeEPQDbgzxfV-98" target="j6avo99_GeEPQDbgzxfV-62">
          <mxGeometry relative="1" as="geometry">
            <Array as="points">
              <mxPoint x="790" y="1790" />
              <mxPoint x="790" y="500" />
            </Array>
          </mxGeometry>
        </mxCell>
        <mxCell id="j6avo99_GeEPQDbgzxfV-129" value="" style="edgeStyle=orthogonalEdgeStyle;rounded=0;orthogonalLoop=1;jettySize=auto;html=1;" edge="1" parent="1" source="j6avo99_GeEPQDbgzxfV-98">
          <mxGeometry relative="1" as="geometry">
            <mxPoint x="690" y="1890" as="targetPoint" />
          </mxGeometry>
        </mxCell>
        <mxCell id="j6avo99_GeEPQDbgzxfV-98" value="min = 0;&lt;br&gt;min = MIN(h1, h2, h3, h4);" style="whiteSpace=wrap;html=1;align=left;rounded=1;" vertex="1" parent="1">
          <mxGeometry x="630" y="1760" width="120" height="60" as="geometry" />
        </mxCell>
        <mxCell id="j6avo99_GeEPQDbgzxfV-132" value="" style="edgeStyle=orthogonalEdgeStyle;rounded=0;orthogonalLoop=1;jettySize=auto;html=1;" edge="1" parent="1" source="j6avo99_GeEPQDbgzxfV-130" target="j6avo99_GeEPQDbgzxfV-131">
          <mxGeometry relative="1" as="geometry" />
        </mxCell>
        <mxCell id="j6avo99_GeEPQDbgzxfV-161" style="edgeStyle=orthogonalEdgeStyle;rounded=0;orthogonalLoop=1;jettySize=auto;html=1;entryX=1;entryY=0.5;entryDx=0;entryDy=0;" edge="1" parent="1" source="j6avo99_GeEPQDbgzxfV-130" target="j6avo99_GeEPQDbgzxfV-134">
          <mxGeometry relative="1" as="geometry">
            <Array as="points">
              <mxPoint x="620" y="1950" />
              <mxPoint x="620" y="1510" />
            </Array>
          </mxGeometry>
        </mxCell>
        <mxCell id="j6avo99_GeEPQDbgzxfV-130" value="&lt;font style=&quot;font-size: 12px;&quot;&gt;&lt;br&gt;if(max &amp;gt;= 2 * min &amp;amp;&amp;amp; max &amp;gt;= 0 &amp;amp;&amp;amp; min &amp;gt;= 0)&lt;/font&gt;" style="rhombus;whiteSpace=wrap;html=1;align=center;" vertex="1" parent="1">
          <mxGeometry x="627.5" y="1890" width="125" height="120" as="geometry" />
        </mxCell>
        <mxCell id="j6avo99_GeEPQDbgzxfV-160" style="edgeStyle=orthogonalEdgeStyle;rounded=0;orthogonalLoop=1;jettySize=auto;html=1;entryX=0.5;entryY=0;entryDx=0;entryDy=0;" edge="1" parent="1" source="j6avo99_GeEPQDbgzxfV-131" target="j6avo99_GeEPQDbgzxfV-134">
          <mxGeometry relative="1" as="geometry">
            <mxPoint x="877.4999999999995" y="2090" as="targetPoint" />
            <Array as="points">
              <mxPoint x="877" y="2070" />
              <mxPoint x="620" y="2070" />
              <mxPoint x="620" y="1460" />
              <mxPoint x="362" y="1460" />
            </Array>
          </mxGeometry>
        </mxCell>
        <mxCell id="j6avo99_GeEPQDbgzxfV-131" value="rev++;" style="rounded=1;whiteSpace=wrap;html=1;" vertex="1" parent="1">
          <mxGeometry x="817.5" y="1920" width="120" height="60" as="geometry" />
        </mxCell>
        <mxCell id="j6avo99_GeEPQDbgzxfV-133" value="" style="edgeStyle=orthogonalEdgeStyle;rounded=0;orthogonalLoop=1;jettySize=auto;html=1;" edge="1" parent="1" source="j6avo99_GeEPQDbgzxfV-134" target="j6avo99_GeEPQDbgzxfV-136">
          <mxGeometry relative="1" as="geometry" />
        </mxCell>
        <mxCell id="j6avo99_GeEPQDbgzxfV-134" value="h2 = h2 - d2;" style="whiteSpace=wrap;html=1;align=left;rounded=1;" vertex="1" parent="1">
          <mxGeometry x="302.5" y="1480" width="120" height="60" as="geometry" />
        </mxCell>
        <mxCell id="j6avo99_GeEPQDbgzxfV-135" value="" style="edgeStyle=orthogonalEdgeStyle;rounded=0;orthogonalLoop=1;jettySize=auto;html=1;" edge="1" parent="1" source="j6avo99_GeEPQDbgzxfV-136" target="j6avo99_GeEPQDbgzxfV-138">
          <mxGeometry relative="1" as="geometry" />
        </mxCell>
        <mxCell id="j6avo99_GeEPQDbgzxfV-166" style="edgeStyle=orthogonalEdgeStyle;rounded=0;orthogonalLoop=1;jettySize=auto;html=1;entryX=1;entryY=0.5;entryDx=0;entryDy=0;" edge="1" parent="1" source="j6avo99_GeEPQDbgzxfV-136" target="j6avo99_GeEPQDbgzxfV-12">
          <mxGeometry relative="1" as="geometry">
            <Array as="points">
              <mxPoint x="470" y="1650" />
              <mxPoint x="470" y="430" />
              <mxPoint x="120" y="430" />
            </Array>
          </mxGeometry>
        </mxCell>
        <mxCell id="j6avo99_GeEPQDbgzxfV-136" value="max = 0;&lt;br&gt;max = MAX(h1, h2, h3, h4);" style="whiteSpace=wrap;html=1;align=left;rounded=1;" vertex="1" parent="1">
          <mxGeometry x="302.5" y="1620" width="120" height="60" as="geometry" />
        </mxCell>
        <mxCell id="j6avo99_GeEPQDbgzxfV-137" value="" style="edgeStyle=orthogonalEdgeStyle;rounded=0;orthogonalLoop=1;jettySize=auto;html=1;" edge="1" parent="1" source="j6avo99_GeEPQDbgzxfV-138">
          <mxGeometry relative="1" as="geometry">
            <mxPoint x="362.5" y="1890" as="targetPoint" />
          </mxGeometry>
        </mxCell>
        <mxCell id="j6avo99_GeEPQDbgzxfV-167" style="edgeStyle=orthogonalEdgeStyle;rounded=0;orthogonalLoop=1;jettySize=auto;html=1;entryX=0;entryY=0.5;entryDx=0;entryDy=0;" edge="1" parent="1" source="j6avo99_GeEPQDbgzxfV-138" target="j6avo99_GeEPQDbgzxfV-62">
          <mxGeometry relative="1" as="geometry" />
        </mxCell>
        <mxCell id="j6avo99_GeEPQDbgzxfV-138" value="min = 0;&lt;br&gt;min = MIN(h1, h2, h3, h4);" style="whiteSpace=wrap;html=1;align=left;rounded=1;" vertex="1" parent="1">
          <mxGeometry x="302.5" y="1760" width="120" height="60" as="geometry" />
        </mxCell>
        <mxCell id="j6avo99_GeEPQDbgzxfV-139" value="" style="edgeStyle=orthogonalEdgeStyle;rounded=0;orthogonalLoop=1;jettySize=auto;html=1;" edge="1" parent="1" source="j6avo99_GeEPQDbgzxfV-140" target="j6avo99_GeEPQDbgzxfV-141">
          <mxGeometry relative="1" as="geometry" />
        </mxCell>
        <mxCell id="j6avo99_GeEPQDbgzxfV-163" style="edgeStyle=orthogonalEdgeStyle;rounded=0;orthogonalLoop=1;jettySize=auto;html=1;exitX=0;exitY=0.5;exitDx=0;exitDy=0;entryX=1;entryY=0.5;entryDx=0;entryDy=0;" edge="1" parent="1" source="j6avo99_GeEPQDbgzxfV-140" target="j6avo99_GeEPQDbgzxfV-143">
          <mxGeometry relative="1" as="geometry">
            <Array as="points">
              <mxPoint x="290" y="1950" />
              <mxPoint x="290" y="1510" />
            </Array>
          </mxGeometry>
        </mxCell>
        <mxCell id="j6avo99_GeEPQDbgzxfV-140" value="&lt;font style=&quot;font-size: 12px;&quot;&gt;&lt;br&gt;if(max &amp;gt;= 2 * min &amp;amp;&amp;amp; max &amp;gt;= 0 &amp;amp;&amp;amp; min &amp;gt;= 0)&lt;/font&gt;" style="rhombus;whiteSpace=wrap;html=1;align=center;" vertex="1" parent="1">
          <mxGeometry x="300" y="1890" width="125" height="120" as="geometry" />
        </mxCell>
        <mxCell id="j6avo99_GeEPQDbgzxfV-162" style="edgeStyle=orthogonalEdgeStyle;rounded=0;orthogonalLoop=1;jettySize=auto;html=1;entryX=0.5;entryY=0;entryDx=0;entryDy=0;" edge="1" parent="1" source="j6avo99_GeEPQDbgzxfV-141" target="j6avo99_GeEPQDbgzxfV-143">
          <mxGeometry relative="1" as="geometry">
            <Array as="points">
              <mxPoint x="550" y="2030" />
              <mxPoint x="291" y="2030" />
              <mxPoint x="291" y="1460" />
              <mxPoint x="32" y="1460" />
            </Array>
          </mxGeometry>
        </mxCell>
        <mxCell id="j6avo99_GeEPQDbgzxfV-141" value="rev++;" style="rounded=1;whiteSpace=wrap;html=1;" vertex="1" parent="1">
          <mxGeometry x="490" y="1920" width="120" height="60" as="geometry" />
        </mxCell>
        <mxCell id="j6avo99_GeEPQDbgzxfV-142" value="" style="edgeStyle=orthogonalEdgeStyle;rounded=0;orthogonalLoop=1;jettySize=auto;html=1;" edge="1" parent="1" source="j6avo99_GeEPQDbgzxfV-143" target="j6avo99_GeEPQDbgzxfV-145">
          <mxGeometry relative="1" as="geometry" />
        </mxCell>
        <mxCell id="j6avo99_GeEPQDbgzxfV-143" value="h1 = h1 - d1;" style="whiteSpace=wrap;html=1;align=left;rounded=1;" vertex="1" parent="1">
          <mxGeometry x="-27.5" y="1480" width="120" height="60" as="geometry" />
        </mxCell>
        <mxCell id="j6avo99_GeEPQDbgzxfV-144" value="" style="edgeStyle=orthogonalEdgeStyle;rounded=0;orthogonalLoop=1;jettySize=auto;html=1;" edge="1" parent="1" source="j6avo99_GeEPQDbgzxfV-145" target="j6avo99_GeEPQDbgzxfV-147">
          <mxGeometry relative="1" as="geometry" />
        </mxCell>
        <mxCell id="j6avo99_GeEPQDbgzxfV-168" style="edgeStyle=orthogonalEdgeStyle;rounded=0;orthogonalLoop=1;jettySize=auto;html=1;exitX=1;exitY=0.5;exitDx=0;exitDy=0;entryX=1;entryY=0.5;entryDx=0;entryDy=0;" edge="1" parent="1" source="j6avo99_GeEPQDbgzxfV-145" target="j6avo99_GeEPQDbgzxfV-12">
          <mxGeometry relative="1" as="geometry">
            <Array as="points">
              <mxPoint x="220" y="1650" />
              <mxPoint x="220" y="1290" />
              <mxPoint x="410" y="1290" />
              <mxPoint x="410" y="430" />
              <mxPoint x="120" y="430" />
            </Array>
          </mxGeometry>
        </mxCell>
        <mxCell id="j6avo99_GeEPQDbgzxfV-145" value="max = 0;&lt;br&gt;max = MAX(h1, h2, h3, h4);" style="whiteSpace=wrap;html=1;align=left;rounded=1;" vertex="1" parent="1">
          <mxGeometry x="-27.5" y="1620" width="120" height="60" as="geometry" />
        </mxCell>
        <mxCell id="j6avo99_GeEPQDbgzxfV-146" value="" style="edgeStyle=orthogonalEdgeStyle;rounded=0;orthogonalLoop=1;jettySize=auto;html=1;" edge="1" parent="1" source="j6avo99_GeEPQDbgzxfV-147">
          <mxGeometry relative="1" as="geometry">
            <mxPoint x="32.5" y="1890" as="targetPoint" />
          </mxGeometry>
        </mxCell>
        <mxCell id="j6avo99_GeEPQDbgzxfV-169" style="edgeStyle=orthogonalEdgeStyle;rounded=0;orthogonalLoop=1;jettySize=auto;html=1;" edge="1" parent="1" source="j6avo99_GeEPQDbgzxfV-147">
          <mxGeometry relative="1" as="geometry">
            <mxPoint x="470" y="494.923095703125" as="targetPoint" />
            <Array as="points">
              <mxPoint x="250" y="1790" />
              <mxPoint x="250" y="1350" />
              <mxPoint x="410" y="1350" />
              <mxPoint x="410" y="495" />
            </Array>
          </mxGeometry>
        </mxCell>
        <mxCell id="j6avo99_GeEPQDbgzxfV-147" value="min = 0;&lt;br&gt;min = MIN(h1, h2, h3, h4);" style="whiteSpace=wrap;html=1;align=left;rounded=1;" vertex="1" parent="1">
          <mxGeometry x="-27.5" y="1760" width="120" height="60" as="geometry" />
        </mxCell>
        <mxCell id="j6avo99_GeEPQDbgzxfV-148" value="" style="edgeStyle=orthogonalEdgeStyle;rounded=0;orthogonalLoop=1;jettySize=auto;html=1;" edge="1" parent="1" source="j6avo99_GeEPQDbgzxfV-149" target="j6avo99_GeEPQDbgzxfV-150">
          <mxGeometry relative="1" as="geometry" />
        </mxCell>
        <mxCell id="j6avo99_GeEPQDbgzxfV-165" style="edgeStyle=orthogonalEdgeStyle;rounded=0;orthogonalLoop=1;jettySize=auto;html=1;exitX=0;exitY=0.5;exitDx=0;exitDy=0;entryX=1;entryY=0.5;entryDx=0;entryDy=0;" edge="1" parent="1" source="j6avo99_GeEPQDbgzxfV-149" target="j6avo99_GeEPQDbgzxfV-152">
          <mxGeometry relative="1" as="geometry">
            <Array as="points">
              <mxPoint x="-50" y="1950" />
              <mxPoint x="-50" y="1510" />
            </Array>
          </mxGeometry>
        </mxCell>
        <mxCell id="j6avo99_GeEPQDbgzxfV-149" value="&lt;font style=&quot;font-size: 12px;&quot;&gt;&lt;br&gt;if(max &amp;gt;= 2 * min &amp;amp;&amp;amp; max &amp;gt;= 0 &amp;amp;&amp;amp; min &amp;gt;= 0)&lt;/font&gt;" style="rhombus;whiteSpace=wrap;html=1;align=center;" vertex="1" parent="1">
          <mxGeometry x="-30" y="1890" width="125" height="120" as="geometry" />
        </mxCell>
        <mxCell id="j6avo99_GeEPQDbgzxfV-164" style="edgeStyle=orthogonalEdgeStyle;rounded=0;orthogonalLoop=1;jettySize=auto;html=1;entryX=0.5;entryY=0;entryDx=0;entryDy=0;" edge="1" parent="1" source="j6avo99_GeEPQDbgzxfV-150" target="j6avo99_GeEPQDbgzxfV-152">
          <mxGeometry relative="1" as="geometry">
            <Array as="points">
              <mxPoint x="220" y="2040" />
              <mxPoint x="-50" y="2040" />
              <mxPoint x="-50" y="1460" />
              <mxPoint x="-308" y="1460" />
            </Array>
          </mxGeometry>
        </mxCell>
        <mxCell id="j6avo99_GeEPQDbgzxfV-150" value="rev++;" style="rounded=1;whiteSpace=wrap;html=1;" vertex="1" parent="1">
          <mxGeometry x="160" y="1920" width="120" height="60" as="geometry" />
        </mxCell>
        <mxCell id="j6avo99_GeEPQDbgzxfV-151" value="" style="edgeStyle=orthogonalEdgeStyle;rounded=0;orthogonalLoop=1;jettySize=auto;html=1;" edge="1" parent="1" source="j6avo99_GeEPQDbgzxfV-152" target="j6avo99_GeEPQDbgzxfV-154">
          <mxGeometry relative="1" as="geometry" />
        </mxCell>
        <mxCell id="j6avo99_GeEPQDbgzxfV-152" value="h1 = h1 - d1;" style="whiteSpace=wrap;html=1;align=left;rounded=1;" vertex="1" parent="1">
          <mxGeometry x="-367.5" y="1480" width="120" height="60" as="geometry" />
        </mxCell>
        <mxCell id="j6avo99_GeEPQDbgzxfV-153" value="" style="edgeStyle=orthogonalEdgeStyle;rounded=0;orthogonalLoop=1;jettySize=auto;html=1;" edge="1" parent="1" source="j6avo99_GeEPQDbgzxfV-154" target="j6avo99_GeEPQDbgzxfV-156">
          <mxGeometry relative="1" as="geometry" />
        </mxCell>
        <mxCell id="j6avo99_GeEPQDbgzxfV-170" style="edgeStyle=orthogonalEdgeStyle;rounded=0;orthogonalLoop=1;jettySize=auto;html=1;entryX=0;entryY=0.5;entryDx=0;entryDy=0;" edge="1" parent="1" source="j6avo99_GeEPQDbgzxfV-154" target="j6avo99_GeEPQDbgzxfV-12">
          <mxGeometry relative="1" as="geometry" />
        </mxCell>
        <mxCell id="j6avo99_GeEPQDbgzxfV-154" value="max = 0;&lt;br&gt;max = MAX(h1, h2, h3, h4);" style="whiteSpace=wrap;html=1;align=left;rounded=1;" vertex="1" parent="1">
          <mxGeometry x="-367.5" y="1620" width="120" height="60" as="geometry" />
        </mxCell>
        <mxCell id="j6avo99_GeEPQDbgzxfV-155" value="" style="edgeStyle=orthogonalEdgeStyle;rounded=0;orthogonalLoop=1;jettySize=auto;html=1;" edge="1" parent="1" source="j6avo99_GeEPQDbgzxfV-156">
          <mxGeometry relative="1" as="geometry">
            <mxPoint x="-307.5" y="1890" as="targetPoint" />
          </mxGeometry>
        </mxCell>
        <mxCell id="j6avo99_GeEPQDbgzxfV-171" style="edgeStyle=orthogonalEdgeStyle;rounded=0;orthogonalLoop=1;jettySize=auto;html=1;exitX=1;exitY=0.5;exitDx=0;exitDy=0;entryX=0;entryY=0.5;entryDx=0;entryDy=0;" edge="1" parent="1" source="j6avo99_GeEPQDbgzxfV-156" target="j6avo99_GeEPQDbgzxfV-62">
          <mxGeometry relative="1" as="geometry">
            <Array as="points">
              <mxPoint x="-90" y="1790" />
              <mxPoint x="-90" y="1240" />
              <mxPoint x="350" y="1240" />
              <mxPoint x="350" y="500" />
            </Array>
          </mxGeometry>
        </mxCell>
        <mxCell id="j6avo99_GeEPQDbgzxfV-156" value="min = 0;&lt;br&gt;min = MIN(h1, h2, h3, h4);" style="whiteSpace=wrap;html=1;align=left;rounded=1;" vertex="1" parent="1">
          <mxGeometry x="-367.5" y="1760" width="120" height="60" as="geometry" />
        </mxCell>
        <mxCell id="j6avo99_GeEPQDbgzxfV-157" value="" style="edgeStyle=orthogonalEdgeStyle;rounded=0;orthogonalLoop=1;jettySize=auto;html=1;" edge="1" parent="1" source="j6avo99_GeEPQDbgzxfV-158" target="j6avo99_GeEPQDbgzxfV-159">
          <mxGeometry relative="1" as="geometry" />
        </mxCell>
        <mxCell id="j6avo99_GeEPQDbgzxfV-175" value="" style="edgeStyle=orthogonalEdgeStyle;rounded=0;orthogonalLoop=1;jettySize=auto;html=1;" edge="1" parent="1" source="j6avo99_GeEPQDbgzxfV-158" target="j6avo99_GeEPQDbgzxfV-174">
          <mxGeometry relative="1" as="geometry" />
        </mxCell>
        <mxCell id="j6avo99_GeEPQDbgzxfV-158" value="&lt;font style=&quot;font-size: 12px;&quot;&gt;&lt;br&gt;if(max &amp;gt;= 2 * min &amp;amp;&amp;amp; max &amp;gt;= 0 &amp;amp;&amp;amp; min &amp;gt;= 0)&lt;/font&gt;" style="rhombus;whiteSpace=wrap;html=1;align=center;" vertex="1" parent="1">
          <mxGeometry x="-370" y="1890" width="125" height="120" as="geometry" />
        </mxCell>
        <mxCell id="j6avo99_GeEPQDbgzxfV-159" value="rev++;" style="rounded=1;whiteSpace=wrap;html=1;" vertex="1" parent="1">
          <mxGeometry x="-180" y="1920" width="120" height="60" as="geometry" />
        </mxCell>
        <mxCell id="j6avo99_GeEPQDbgzxfV-177" value="" style="edgeStyle=orthogonalEdgeStyle;rounded=0;orthogonalLoop=1;jettySize=auto;html=1;" edge="1" parent="1" source="j6avo99_GeEPQDbgzxfV-174" target="j6avo99_GeEPQDbgzxfV-176">
          <mxGeometry relative="1" as="geometry" />
        </mxCell>
        <mxCell id="j6avo99_GeEPQDbgzxfV-174" value="//Вивід результату" style="shape=document;whiteSpace=wrap;html=1;boundedLbl=1;" vertex="1" parent="1">
          <mxGeometry x="-367.5" y="2110" width="120" height="80" as="geometry" />
        </mxCell>
        <mxCell id="j6avo99_GeEPQDbgzxfV-181" value="" style="edgeStyle=orthogonalEdgeStyle;rounded=0;orthogonalLoop=1;jettySize=auto;html=1;" edge="1" parent="1" source="j6avo99_GeEPQDbgzxfV-176" target="j6avo99_GeEPQDbgzxfV-180">
          <mxGeometry relative="1" as="geometry" />
        </mxCell>
        <mxCell id="j6avo99_GeEPQDbgzxfV-183" value="" style="edgeStyle=orthogonalEdgeStyle;rounded=0;orthogonalLoop=1;jettySize=auto;html=1;" edge="1" parent="1" source="j6avo99_GeEPQDbgzxfV-176" target="j6avo99_GeEPQDbgzxfV-182">
          <mxGeometry relative="1" as="geometry" />
        </mxCell>
        <mxCell id="j6avo99_GeEPQDbgzxfV-176" value="&lt;font style=&quot;font-size: 10px;&quot;&gt;&amp;nbsp;if(h1 &amp;gt; 0 &amp;amp;&amp;amp; h2 &amp;gt; 0 &amp;amp;&amp;amp; h3 &amp;gt; 0 &amp;amp;&amp;amp; h4 &amp;gt; 0 &amp;amp;&amp;amp; rev == 0)&lt;/font&gt;" style="rhombus;whiteSpace=wrap;html=1;" vertex="1" parent="1">
          <mxGeometry x="-386" y="2230" width="157" height="150" as="geometry" />
        </mxCell>
        <mxCell id="j6avo99_GeEPQDbgzxfV-206" style="edgeStyle=orthogonalEdgeStyle;rounded=0;orthogonalLoop=1;jettySize=auto;html=1;entryX=1;entryY=0.5;entryDx=0;entryDy=0;" edge="1" parent="1" source="j6avo99_GeEPQDbgzxfV-180" target="j6avo99_GeEPQDbgzxfV-190">
          <mxGeometry relative="1" as="geometry">
            <Array as="points">
              <mxPoint x="60" y="2305" />
              <mxPoint x="60" y="2905" />
            </Array>
          </mxGeometry>
        </mxCell>
        <mxCell id="j6avo99_GeEPQDbgzxfV-180" value="&quot;YES&quot;" style="shape=parallelogram;perimeter=parallelogramPerimeter;whiteSpace=wrap;html=1;fixedSize=1;" vertex="1" parent="1">
          <mxGeometry x="-130.5" y="2275" width="120" height="60" as="geometry" />
        </mxCell>
        <mxCell id="j6avo99_GeEPQDbgzxfV-187" value="" style="edgeStyle=orthogonalEdgeStyle;rounded=0;orthogonalLoop=1;jettySize=auto;html=1;" edge="1" parent="1" source="j6avo99_GeEPQDbgzxfV-182" target="j6avo99_GeEPQDbgzxfV-186">
          <mxGeometry relative="1" as="geometry" />
        </mxCell>
        <mxCell id="j6avo99_GeEPQDbgzxfV-189" value="" style="edgeStyle=orthogonalEdgeStyle;rounded=0;orthogonalLoop=1;jettySize=auto;html=1;" edge="1" parent="1" source="j6avo99_GeEPQDbgzxfV-182" target="j6avo99_GeEPQDbgzxfV-188">
          <mxGeometry relative="1" as="geometry" />
        </mxCell>
        <mxCell id="j6avo99_GeEPQDbgzxfV-182" value="&lt;font style=&quot;font-size: 10px;&quot;&gt;&amp;nbsp;else if(h1 &amp;lt; 0&amp;nbsp; h2 &amp;lt; 0&amp;nbsp; h3 &amp;lt; 0&amp;nbsp; h4 &amp;lt; 0 )&lt;/font&gt;" style="rhombus;whiteSpace=wrap;html=1;align=left;" vertex="1" parent="1">
          <mxGeometry x="-386" y="2460" width="157" height="150" as="geometry" />
        </mxCell>
        <mxCell id="j6avo99_GeEPQDbgzxfV-207" style="edgeStyle=orthogonalEdgeStyle;rounded=0;orthogonalLoop=1;jettySize=auto;html=1;exitX=1;exitY=0.5;exitDx=0;exitDy=0;entryX=1;entryY=0.5;entryDx=0;entryDy=0;" edge="1" parent="1" source="j6avo99_GeEPQDbgzxfV-186" target="j6avo99_GeEPQDbgzxfV-190">
          <mxGeometry relative="1" as="geometry">
            <Array as="points">
              <mxPoint x="60" y="2535" />
              <mxPoint x="60" y="2905" />
            </Array>
          </mxGeometry>
        </mxCell>
        <mxCell id="j6avo99_GeEPQDbgzxfV-186" value="&quot;ERROR&quot;" style="shape=parallelogram;perimeter=parallelogramPerimeter;whiteSpace=wrap;html=1;fixedSize=1;align=center;" vertex="1" parent="1">
          <mxGeometry x="-130.5" y="2505" width="120" height="60" as="geometry" />
        </mxCell>
        <mxCell id="j6avo99_GeEPQDbgzxfV-191" value="" style="edgeStyle=orthogonalEdgeStyle;rounded=0;orthogonalLoop=1;jettySize=auto;html=1;" edge="1" parent="1" source="j6avo99_GeEPQDbgzxfV-188" target="j6avo99_GeEPQDbgzxfV-190">
          <mxGeometry relative="1" as="geometry" />
        </mxCell>
        <mxCell id="j6avo99_GeEPQDbgzxfV-188" value="&quot;NO&quot;" style="shape=parallelogram;perimeter=parallelogramPerimeter;whiteSpace=wrap;html=1;fixedSize=1;align=center;" vertex="1" parent="1">
          <mxGeometry x="-367.5" y="2735" width="120" height="60" as="geometry" />
        </mxCell>
        <mxCell id="j6avo99_GeEPQDbgzxfV-190" value="END" style="ellipse;whiteSpace=wrap;html=1;" vertex="1" parent="1">
          <mxGeometry x="-347.5" y="2865" width="80" height="80" as="geometry" />
        </mxCell>
        <mxCell id="j6avo99_GeEPQDbgzxfV-192" value="Yes" style="text;html=1;align=center;verticalAlign=middle;resizable=0;points=[];autosize=1;strokeColor=none;fillColor=none;" vertex="1" parent="1">
          <mxGeometry x="760" y="1918" width="40" height="30" as="geometry" />
        </mxCell>
        <mxCell id="j6avo99_GeEPQDbgzxfV-193" value="No" style="text;html=1;align=center;verticalAlign=middle;resizable=0;points=[];autosize=1;strokeColor=none;fillColor=none;" vertex="1" parent="1">
          <mxGeometry x="620" y="1908" width="40" height="30" as="geometry" />
        </mxCell>
        <mxCell id="j6avo99_GeEPQDbgzxfV-194" value="Yes" style="text;html=1;align=center;verticalAlign=middle;resizable=0;points=[];autosize=1;strokeColor=none;fillColor=none;" vertex="1" parent="1">
          <mxGeometry x="420" y="1920" width="40" height="30" as="geometry" />
        </mxCell>
        <mxCell id="j6avo99_GeEPQDbgzxfV-196" value="Yes" style="text;html=1;align=center;verticalAlign=middle;resizable=0;points=[];autosize=1;strokeColor=none;fillColor=none;" vertex="1" parent="1">
          <mxGeometry x="90" y="1920" width="40" height="30" as="geometry" />
        </mxCell>
        <mxCell id="j6avo99_GeEPQDbgzxfV-197" value="Yes" style="text;html=1;align=center;verticalAlign=middle;resizable=0;points=[];autosize=1;strokeColor=none;fillColor=none;" vertex="1" parent="1">
          <mxGeometry x="-250" y="1920" width="40" height="30" as="geometry" />
        </mxCell>
        <mxCell id="j6avo99_GeEPQDbgzxfV-198" value="No" style="text;html=1;align=center;verticalAlign=middle;resizable=0;points=[];autosize=1;strokeColor=none;fillColor=none;" vertex="1" parent="1">
          <mxGeometry x="290" y="1908" width="40" height="30" as="geometry" />
        </mxCell>
        <mxCell id="j6avo99_GeEPQDbgzxfV-199" value="No" style="text;html=1;align=center;verticalAlign=middle;resizable=0;points=[];autosize=1;strokeColor=none;fillColor=none;" vertex="1" parent="1">
          <mxGeometry x="-50.5" y="1908" width="40" height="30" as="geometry" />
        </mxCell>
        <mxCell id="j6avo99_GeEPQDbgzxfV-200" value="No" style="text;html=1;align=center;verticalAlign=middle;resizable=0;points=[];autosize=1;strokeColor=none;fillColor=none;" vertex="1" parent="1">
          <mxGeometry x="-300" y="2010" width="40" height="30" as="geometry" />
        </mxCell>
        <mxCell id="j6avo99_GeEPQDbgzxfV-202" value="Yes" style="text;html=1;align=center;verticalAlign=middle;resizable=0;points=[];autosize=1;strokeColor=none;fillColor=none;" vertex="1" parent="1">
          <mxGeometry x="-220" y="2275" width="40" height="30" as="geometry" />
        </mxCell>
        <mxCell id="j6avo99_GeEPQDbgzxfV-203" value="Yes" style="text;html=1;align=center;verticalAlign=middle;resizable=0;points=[];autosize=1;strokeColor=none;fillColor=none;" vertex="1" parent="1">
          <mxGeometry x="-220" y="2500" width="40" height="30" as="geometry" />
        </mxCell>
        <mxCell id="j6avo99_GeEPQDbgzxfV-204" value="No" style="text;html=1;align=center;verticalAlign=middle;resizable=0;points=[];autosize=1;strokeColor=none;fillColor=none;" vertex="1" parent="1">
          <mxGeometry x="-350" y="2380" width="40" height="30" as="geometry" />
        </mxCell>
        <mxCell id="j6avo99_GeEPQDbgzxfV-205" value="No" style="text;html=1;align=center;verticalAlign=middle;resizable=0;points=[];autosize=1;strokeColor=none;fillColor=none;" vertex="1" parent="1">
          <mxGeometry x="-360" y="2610" width="40" height="30" as="geometry" />
        </mxCell>
      </root>
    </mxGraphModel>
  </diagram>
</mxfile>
